<!-- Generated by IcoMoon.io -->
<svg version="1.1" xmlns="http://www.w3.org/2000/svg" width="512" height="512" viewBox="0 0 512 512">
<title></title>
<g id="icomoon-ignore">
</g>
<path d="M464 0h-416c-26.4 0-48 21.6-48 48v416c0 26.4 21.6 48 48 48h416c26.4 0 48-21.6 48-48v-416c0-26.4-21.6-48-48-48zM88 352h-16l-8-48 8-48h16l8 48-8 48zM152 352h-16l-8-64 8-64h16l8 64-8 64zM216 352h-16l-8-96 8-96h16l8 96-8 96zM412.6 352c-1 0-150.6-0.1-150.7-0.1-3.2-0.3-5.8-3.1-5.9-6.4v-172.6c0-3.2 1.1-4.8 5.2-6.4 10.6-4.1 22.5-6.5 34.8-6.5 50.1 0 91.2 38.4 95.6 87.5 6.5-2.7 13.6-4.2 21-4.2 30 0 54.4 24.4 54.4 54.4s-24.4 54.3-54.4 54.3z"></path>
</svg>
